<svg xmlns="http://www.w3.org/2000/svg" width="243.855" height="243.855" viewBox="0 0 64.52 64.52" xmlns:v="https://vecta.io/nano"><path d="M32.259.082C14.488.083.082 14.489.082 32.26S14.489 64.438 32.26 64.438 64.437 50.031 64.437 32.26 50.031.083 32.26.082zm.001 8.739c12.272 0 23.439 11.167 23.439 23.439S44.532 55.7 32.26 55.7 8.821 44.533 8.821 32.261 19.988 8.821 32.26 8.821z" opacity=".998" fill="#d1d1d1" fill-rule="evenodd" /><path d="M16.123 52.296l-.517.626-.337.118.327-1.179-.46-.38-.463 1.712-1.312.493.46.38.606-.248q.227-.091.389-.163.162-.072.299-.149l.006.005-.8.97.408.336 1.802-2.184zm-2.253-2.043l-.289.298.689.667-.607.626-.635-.614-.289.298.635.614-.496.513-.689-.667-.289.298 1.069 1.034 1.969-2.034zm-1.317-.11q-.711.609-1.253 1.131l-.012-.014 1.598-2.098-.209-.244-2.327 1.246-.005-.006q.6-.454 1.312-1.063l.677-.579-.344-.402-2.151 1.84.545.637 1.182-.639q.112-.061.23-.137.116-.079.32-.224l.005.006q-.254.267-.432.499l-.814 1.069.547.64 2.151-1.84-.344-.402zm-1.704-3.645l-.339.24.553.783-.712.503-.51-.721-.339.24.51.721-.583.412-.553-.783-.339.24.858 1.214 2.312-1.634zm-2.833-.272q.276-.164.671-.429.289-.194.664-.456l.004.007q-.244.255-.425.467-.186.211-.35.431l-.676.88.279.471 2.434-1.445-.27-.454-.458.272q-.13.077-.295.184-.17.105-.373.244-.157.106-.305.212-.153.104-.361.249l-.004-.007q.249-.262.435-.473.181-.213.34-.426l.657-.868-.281-.474-2.434 1.445.27.454zm-.634-.835l-.273-.556 2.169-1.064-.233-.474-2.169 1.064-.271-.552-.373.183.777 1.583zm.717-4.305l-.385.156.359.889-.808.327-.331-.819-.385.156.331.819-.661.267-.359-.889-.385.156.557 1.379 2.625-1.061zm-1.492-.614q-.051-.162-.073-.258-.026-.095-.025-.182 0-.063.032-.113.028-.048.082-.081.052-.036.109-.058.053-.02.145-.053l.022-.007q.007-.002.104-.033.197-.066.339-.118.141-.056.224-.118l-.173-.555-.05.016q-.01.043-.086.09-.08.049-.195.097-.119.049-.244.092-.129.044-.294.096-.209.065-.307.195-.099.126-.061.347l-.007.002q-.056-.117-.139-.178-.087-.064-.192-.082-.105-.019-.215-.004-.114.016-.236.054-.18.056-.288.153-.109.093-.152.222-.044.125-.033.275.01.147.064.32l.299.955 2.702-.845-.158-.504-1.164.364zm-1.114.447l-.117-.375q-.047-.163.001-.261.044-.101.256-.167.191-.06.314-.007.118.05.167.181l.124.396zm1.684-2.952l-2.752.665.124.514 2.752-.665zm-.182-.842l-.731-.013-.107-.61.682-.262-.098-.558-2.677 1.123.124.703 2.905.175zm-1.973-.04q-.108-.004-.324.011l-.072.005q-.071.009-.189.014l-.001-.007q.113-.035.183-.051l.069-.02q.208-.06.308-.1l.767-.281.078.446zm-.688-2.759q.32-.027.791-.094.344-.048.797-.121v.007q-.33.123-.586.236-.26.109-.503.236l-.992.498.047.545 2.821-.241-.045-.527-.53.045q-.15.013-.345.037-.199.021-.442.057-.187.027-.366.058-.183.027-.434.067v-.007q.338-.127.597-.237.256-.113.491-.235l.969-.496-.047-.549-2.821.241.045.527zm1.802-2.739l-1.999-.086.015-.347q.01-.23.221-.297.207-.07.727-.048.347.015.539.038.188.019.303.074.115.054.163.158.049.1.041.278zm.434-.431q.005-.124-.006-.219-.011-.095-.053-.176-.084-.159-.235-.256-.151-.097-.341-.143-.194-.05-.386-.066-.192-.02-.475-.032-.373-.016-.605.008-.235.024-.379.105-.182.102-.273.275-.037.066-.051.134-.018.067-.02.124L3.7 32.011l2.828.122zm.268-2.772l-.412-.051-.119.951-.865-.108.109-.877-.412-.051-.109.877-.708-.088.119-.951-.412-.051-.184 1.476 2.809.35zM5.29 26.025l-.03-.006q-.159-.032-.296-.041-.137-.008-.29.041-.152.046-.275.198-.126.148-.183.429-.082.407.065.649.144.241.503.314.229.046.452-.047.142-.071.262-.17.121-.103.291-.276.165-.167.253-.241.091-.089.191-.123.099-.034.218-.01.326.066.26.388-.035.174-.169.228-.133.05-.363.004l-.163-.033-.105.518.203.041q.192.039.357.026.161-.017.293-.095.131-.077.223-.228.096-.15.142-.376.079-.388-.081-.663-.16-.275-.545-.353-.185-.037-.329-.013-.147.024-.299.128-.062.041-.142.114-.079.069-.151.139-.076.069-.143.137-.068.067-.145.148l-.005.007q-.131.131-.219.187-.091.051-.232.022-.137-.028-.181-.114-.048-.087-.02-.224.037-.185.175-.219.138-.034.378.015zm2.147-.435l-.651-.332.171-.595.728.064.156-.544-2.898-.164-.197.686 2.535 1.43zm-1.756-.901q-.095-.051-.296-.132l-.067-.027q-.068-.023-.176-.07l.002-.007q.117.018.187.034l.071.013q.213.038.321.045l.812.084-.125.435zm2.826-.71q.111-.49-.358-.657l-.459-.164-.168.469.469.168.089-.249q.156.056.225.156.073.098.045.221zm-1.724-3.636l.104-.218q.104-.218.207-.269.105-.054.313.044.218.104.268.236.047.131-.034.301l-.122.256zm2.182 1.037l-1.071-.509.152-.32q.078-.164.107-.313.027-.154-.006-.295-.039-.173-.173-.304-.136-.136-.32-.223-.143-.068-.284-.097-.144-.031-.28-.008-.138.018-.251.106-.116.087-.194.25l-.463.975 2.557 1.215zm1.429-2.685l-.36-.207-.477.831-.756-.434.44-.766-.36-.207-.44.766-.619-.355.477-.831-.36-.207-.741 1.29 2.455 1.41zm-.216-1.306q-.763-.542-1.402-.94l.011-.015 2.423 1.04.186-.262-1.774-1.954.004-.006q.586.472 1.35 1.014l.726.516.306-.431-2.308-1.64-.485.683.907.991q.086.094.189.19.105.093.295.256l-.004.006q-.32-.181-.589-.298l-1.235-.53-.487.686 2.308 1.639.306-.431zm2.19-2.086l-.645-.564.134-.153q.154-.176.278-.168.123.002.305.162.105.092.162.187.06.092.026.194-.016.047-.052.1-.037.048-.134.159zm-.957-.838l-.548-.48.162-.185q.115-.125.209-.118.097.004.224.116.168.147.193.244.016.079-.027.157-.046.075-.148.192zm1.536.807q.186-.213.202-.415.018-.205-.129-.444-.083-.123-.236-.257-.216-.189-.408-.227-.192-.038-.357.104l-.006-.005q.075-.195.009-.348-.069-.156-.231-.298-.125-.109-.233-.164-.108-.06-.243-.067-.164-.008-.287.075-.126.081-.265.24l-.562.642 2.131 1.864z"/><path d="M13.985 14.162l-.398-.612.445-.431.599.418.407-.394-2.43-1.588-.513.496 1.483 2.504zm-1.073-1.657q-.057-.092-.191-.262l-.044-.057q-.047-.054-.118-.149l.005-.005q.092.074.145.122l.055.046q.166.139.256.199l.662.478-.325.315zm1.889-2.115q.203.249.524.601.234.257.549.59l-.006.005q-.288-.204-.525-.351-.237-.153-.478-.282l-.97-.539-.424.346 1.789 2.194.41-.334-.336-.413q-.095-.117-.225-.264-.129-.153-.296-.333-.128-.139-.254-.27-.126-.136-.3-.32l.006-.005q.295.207.532.36.237.148.471.273l.956.521.427-.348-1.789-2.194-.41.334zm1.526.126q.189.278.335.448.145.166.315.256.17.09.379.062.209-.028.468-.204.131-.103.189-.246.059-.149.004-.358l.006-.004.182.269.328-.222-.854-1.259-.728.494.233.344.303-.205q.203.3.236.51.033.21-.139.327-.106.072-.204.07-.096-.008-.178-.061-.084-.057-.149-.132-.064-.075-.13-.172l-.441-.65q-.089-.131-.145-.234-.058-.106-.082-.209-.026-.106.005-.195.032-.094.138-.166.108-.069.194-.077.089-.01.16.028.069.035.127.101.056.062.133.17l.437-.297q-.013-.019-.038-.056-.107-.151-.177-.213-.267-.239-.517-.224-.252.011-.561.216-.253.172-.355.35-.102.179-.084.367.019.183.113.375.092.189.266.467zm3.326-1.684q.061.109.095.193.037.083.041.167.005.079-.039.156-.041.074-.149.135-.112.062-.203.061-.088-.003-.156-.047-.066-.049-.12-.123-.054-.074-.115-.182l-.939-1.685-.462.257.961 1.725q.237.425.515.521.281.094.723-.152.439-.244.503-.531.065-.287-.172-.712l-.961-1.725-.462.257zm1.582-2.292q.131.293.349.716.159.309.377.712l-.007.003q-.225-.272-.415-.476-.189-.209-.388-.397l-.796-.773-.5.224 1.156 2.584.482-.216-.217-.486q-.062-.138-.149-.314-.085-.181-.199-.399-.087-.168-.175-.327-.086-.164-.206-.387l.007-.003q.231.277.42.486.191.204.384.387l.787.752.503-.225-1.156-2.584-.482.216zm2.215 1.562l-.105-.723.584-.204.368.631.535-.187-1.539-2.461-.674.235.296 2.895zm-.279-1.954q-.013-.107-.063-.318l-.017-.07q-.02-.069-.044-.184l.007-.002q.053.105.08.172l.031.065q.092.196.149.288l.401.712-.428.149zm2.605-1.127q.079.311.223.765.104.332.25.766l-.007.002q-.175-.306-.329-.539-.15-.238-.315-.457l-.654-.897-.53.135.7 2.743.512-.131-.132-.516q-.037-.146-.093-.335-.053-.193-.128-.427-.058-.18-.117-.352-.057-.176-.138-.417l.007-.002q.181.312.331.55.153.234.313.446l.648.875.534-.136-.7-2.743-.512.131zm2.999 1.329l-.239-1.986.345-.041q.229-.027.328.17.103.193.165.71.041.345.049.538.011.189-.024.311-.035.122-.13.187-.091.064-.267.085zm.495.359q.124-.015.216-.041.092-.026.165-.081.143-.108.214-.273.072-.164.086-.36.018-.2.002-.392-.012-.192-.045-.474-.045-.371-.106-.596-.062-.228-.164-.357-.13-.163-.316-.224-.072-.026-.14-.029-.069-.007-.125 0l-1.094.131.338 2.811zm1.651-.14l.117-.721.619-.019.162.712.566-.018-.73-2.81-.713.022-.587 2.851zm.32-1.947q.019-.106.035-.322l.005-.072q.001-.072.013-.189h.007q.019.116.025.188l.01.071q.029.214.055.319l.169.799-.453.014zm2.906 1.985l.019-.415-.958-.045.041-.871.882.041.019-.415-.882-.041.033-.713.958.045.019-.415-1.486-.07-.132 2.828zm1.18-1.099q.168.022.265.042.097.016.176.053.058.026.089.076.032.046.04.108.011.062.007.123-.003.057-.012.154l-.003.022q-.001.008-.014.109-.023.206-.034.357-.008.151.013.253l.577.074.007-.052q-.035-.027-.046-.116-.011-.093-.006-.218.005-.129.018-.26.013-.135.036-.307.028-.217-.049-.36-.073-.143-.29-.201l.001-.008q.13-.002.22-.052.094-.053.155-.14.061-.087.093-.194.033-.11.049-.237.024-.187-.019-.326-.039-.138-.138-.231-.095-.092-.236-.144-.138-.052-.318-.075l-.992-.127-.36 2.808.524.067.155-1.209zm.059-1.199l.389.05q.168.025.237.11.073.082.045.303-.025.198-.125.288-.095.087-.234.077l-.412-.053zm1.796 2.722l.287-.672.605.13-.014.731.554.119-.033-2.903-.698-.15-1.255 2.626zm.779-1.813q.044-.099.112-.304l.022-.069q.019-.069.058-.181l.007.002q-.01.118-.021.188l-.008.072q-.023.215-.023.323l-.028.816-.443-.095zm1.44 2.352l.376-1.239.708.215-.376 1.239.506.154.823-2.709-.506-.154-.326 1.073-.708-.215.326-1.073-.506-.154-.823 2.709zm3.363-1.409l.568.247-.965 2.215.484.211.965-2.215.564.246.166-.381-1.616-.704zm2.238 3.747l.193-.368-.849-.446.406-.772.782.411.193-.368-.782-.411.332-.632.849.446.193-.368-1.317-.692-1.317 2.506zm1.535-.495q.143.091.222.15.081.056.137.123.041.048.049.107.01.055-.01.114-.016.061-.046.114-.027.05-.077.135l-.012.019q-.004.006-.059.092-.108.177-.183.309-.071.134-.095.235l.491.312.028-.045q-.02-.039.008-.125.029-.089.087-.2.059-.114.127-.228.07-.117.163-.263.117-.185.109-.347-.006-.16-.177-.305l.004-.006q.118.053.221.046.108-.008.2-.061.092-.053.167-.136.077-.085.145-.194.101-.159.121-.303.023-.142-.027-.267-.047-.124-.153-.231-.103-.106-.256-.203l-.844-.536-1.518 2.39.446.283.654-1.029zm.562-1.061l.331.21q.141.094.168.2.032.105-.088.293-.107.169-.235.208-.123.038-.245-.03l-.351-.223z"/><path d="M48.545 9.294l.493.374-1.459 1.925.421.319 1.459-1.925.49.372.251-.331-1.405-1.065zm.586 3.548l1.839-2.152-.402-.343-1.839 2.152zm2.891-.41q-.224.23-.538.588-.229.262-.524.612l-.005-.005q.17-.309.29-.561.125-.252.226-.507l.426-1.025-.392-.382-1.978 2.025.378.369.372-.381q.106-.108.237-.254.137-.146.298-.332.124-.143.24-.283.121-.14.284-.334l.005.005q-.172.317-.298.569-.12.252-.218.499l-.41 1.008.394.385 1.978-2.025-.378-.369zm.048 1.531q-.255.218-.407.383-.149.162-.219.342-.07.179-.019.384.051.205.255.443.117.119.266.16.155.042.356-.036l.005.006-.247.211.258.301 1.156-.989-.572-.669-.316.27.238.278q-.275.235-.481.292-.205.056-.34-.102-.083-.098-.092-.195-.003-.097.041-.184.047-.09.114-.162.067-.072.156-.148l.597-.51q.121-.103.217-.17.099-.07.198-.105.102-.038.194-.017.097.021.181.119.081.1.098.184.02.087-.01.163-.027.073-.086.138-.056.063-.154.151l.343.402q.017-.015.052-.044.138-.123.192-.199.208-.292.165-.539-.039-.249-.277-.533-.199-.232-.388-.314-.189-.082-.374-.043-.18.039-.36.154-.177.112-.434.317zm1.552 1.852q-.274.195-.44.346-.163.149-.249.321-.086.172-.053.381.033.208.214.464.106.129.251.183.15.055.358-.005l.004.006-.264.188.23.323 1.239-.883-.51-.716-.338.241.212.298q-.295.21-.504.248-.209.038-.33-.131-.075-.105-.074-.202.005-.097.057-.18.055-.086.128-.152.073-.066.169-.134l.639-.456q.129-.092.231-.151.105-.061.207-.087.105-.028.195 0 .095.03.17.134.071.107.081.192.012.089-.024.161-.033.07-.098.13-.061.057-.166.137l.307.43q.018-.013.055-.039.148-.11.209-.181.232-.272.212-.522-.017-.252-.229-.555-.177-.249-.359-.347-.181-.098-.369-.075-.183.023-.372.122-.187.096-.461.277zm.513 2.948l.688-.246.316.532-.546.486.289.487 2.107-1.996-.364-.614-2.78.863zm1.86-.66q.102-.034.299-.125l.066-.03q.064-.033.172-.08l.004.007q-.093.073-.153.113l-.058.043q-.173.129-.253.203l-.618.534-.231-.39zm-.314 3.534l.372-.184-.436-.879 2.165-1.072-.235-.474-2.537 1.256zm-.311.677q.25.435.709.241l.449-.19-.194-.459-.459.194.103.243q-.153.065-.271.037-.12-.023-.183-.132zm1.823 2.118l1.914-.581.101.332q.067.22-.11.353-.172.135-.671.286-.332.101-.521.142-.184.044-.31.031-.126-.013-.206-.095-.079-.079-.131-.248zm-.267.55q.036.119.078.205.042.086.108.149.132.122.306.164.174.042.37.022.2-.017.386-.066.188-.045.458-.127.358-.108.568-.208.214-.1.323-.224.138-.156.166-.35.013-.075.004-.143-.005-.069-.022-.124l-.32-1.055-2.709.822zm.427 1.601l.731-.011.128.606-.673.284.117.554 2.638-1.211-.147-.698-2.91-.078zm1.973-.026q.108 0 .323-.022l.072-.007q.071-.011.189-.02l.002.007q-.111.039-.181.057l-.069.022q-.206.067-.305.11l-.757.306-.093-.443zm.781 2.735q-.319.038-.788.121-.343.06-.792.148l-.001-.007q.326-.134.578-.255.256-.118.494-.253l.975-.531-.065-.543-2.811.335.063.525.528-.063q.15-.018.344-.049.198-.027.44-.071.186-.034.364-.07.182-.033.431-.082l.001.007q-.333.139-.589.257-.252.121-.483.251l-.952.528.065.547 2.811-.335-.063-.525zm.29 2.064l-.002.619-2.416-.006-.001.528 2.416.006-.002.615.415.001.004-1.763zm-1.271 2.79q-.014.169-.03.266-.012.097-.045.178-.024.059-.072.092-.045.034-.106.044-.062.014-.122.012-.057-.001-.155-.005l-.023-.002q-.008-.001-.109-.009-.207-.014-.358-.019-.151-.001-.252.024l-.049.579.053.004q.026-.036.114-.051.092-.015.217-.016.129-.001.261.007.136.008.309.022.218.018.358-.065.139-.079.188-.299h.008q.008.129.061.217.057.092.147.149.09.057.197.085.111.028.239.039.188.016.325-.033.136-.045.225-.148.088-.099.134-.243.046-.14.061-.321l.084-.997-2.821-.237-.044.527 1.215.102zm1.2.006l-.033.391q-.018.169-.1.242-.078.077-.3.058-.199-.017-.294-.112-.091-.091-.087-.231l.035-.414zm-2.64 1.913l.684.258-.104.61-.73.018-.095.558 2.899-.158.119-.703-2.678-1.14zm1.845.7q.1.04.309.098l.069.019q.07.016.183.05l-.001.007q-.118-.005-.189-.013l-.072-.005q-.216-.014-.324-.009l-.817.007.076-.447zm-.268 2.82q-.311-.08-.778-.173-.341-.068-.792-.149l.002-.007q.353-.007.631-.029.281-.017.552-.057l1.101-.142.136-.53-2.742-.706-.132.512.515.133q.146.038.338.079.195.046.436.093.186.036.365.067.182.035.432.08l-.002.007q-.361.008-.642.026-.278.022-.541.059l-1.079.147-.137.534 2.742.706.132-.512zm-1.151 2.585l.028.01q.153.053.288.08.135.027.293-.002.157-.025.299-.159.145-.129.239-.4.137-.392.023-.651-.11-.258-.456-.379-.221-.077-.455-.015-.15.052-.282.133-.134.085-.326.234-.186.143-.283.205-.103.076-.205.096-.103.02-.217-.02-.314-.109-.206-.419.058-.168.199-.203.139-.032.36.046l.157.055.174-.499-.196-.068q-.185-.065-.35-.074-.162-.005-.303.054-.14.059-.252.196-.115.136-.191.353-.13.374-.009.668.121.294.492.423.178.062.324.057.149-.004.314-.086.067-.032.156-.093.088-.057.169-.117.084-.059.16-.116.076-.057.164-.127l.006-.006q.147-.113.242-.155.097-.038.233.009.132.046.164.137.036.092-.01.224-.062.178-.203.193-.141.015-.373-.066zm-1.444.682q.85.392 1.551.665l-.008.017-2.574-.575-.134.291 2.104 1.593-.003.007q-.663-.356-1.513-.747l-.809-.373-.221.48 2.571 1.185.351-.761-1.074-.807q-.102-.076-.221-.152-.121-.072-.337-.197l.003-.007q.348.119.634.184l1.311.293.352-.764-2.571-1.185-.221.48zM54.54 45.11l2.472 1.38.258-.461-2.472-1.38zm.816 1.087q-.282-.183-.483-.282-.198-.097-.39-.113-.192-.016-.374.09-.182.107-.352.37-.081.145-.078.3.004.16.136.331l-.004.006-.272-.177-.216.332 1.276.828.479-.738-.348-.226-.199.307q-.304-.197-.416-.378-.112-.181.001-.355.07-.108.161-.143.092-.03.188-.013.1.02.188.064.088.044.187.108l.659.427q.133.086.225.16.095.075.157.16.065.087.071.181.008.099-.062.207-.073.106-.149.146-.078.044-.159.037-.078-.005-.157-.043-.076-.036-.189-.104l-.288.443q.019.012.057.037.157.098.246.128.339.116.563.006.228-.109.433-.417.166-.256.191-.461.025-.204-.065-.371-.089-.161-.25-.302-.158-.138-.427-.327zm-1.766 2.528q-.105.133-.172.206-.064.075-.136.123-.052.036-.111.037-.056.004-.113-.022-.059-.023-.109-.057-.047-.032-.126-.09l-.018-.014q-.006-.005-.086-.068-.165-.126-.288-.213-.126-.085-.224-.119l-.36.456.041.033q.041-.016.123.02.085.038.19.107.108.071.214.15.109.081.245.189.172.136.334.144.16.011.322-.145l.006.005q-.065.112-.069.215-.003.108.04.205.044.097.118.18.077.085.178.165.148.117.289.151.139.037.269.001.128-.034.246-.128.116-.091.228-.234l.62-.785-2.222-1.755-.328.415.957.756zm.997.668l-.243.308q-.108.131-.217.146-.108.021-.283-.117-.157-.124-.183-.255-.025-.126.055-.24l.257-.326zm-3.259.136l.426.594-.425.45-.617-.391-.389.412 2.499 1.477.49-.519-1.595-2.435zm1.146 1.607q.061.089.202.253l.047.055q.05.052.124.143l-.005.005q-.095-.069-.15-.116l-.057-.044q-.172-.131-.264-.187l-.683-.448.311-.329z"/><path d="M50.242 53.319l.02.022q.109.121.213.209.105.088.257.139.15.053.339.005.189-.043.403-.235.309-.278.335-.56.028-.279-.217-.551-.156-.174-.391-.232-.156-.027-.312-.019-.158.01-.398.048-.232.036-.347.043-.127.017-.226-.015-.1-.032-.181-.122-.222-.247.022-.467.132-.119.272-.082.137.039.293.213l.111.124.393-.353-.139-.154q-.131-.146-.271-.234-.14-.082-.291-.098-.151-.016-.315.05-.166.063-.338.217-.295.265-.33.581-.036.316.227.608.126.14.256.206.133.069.317.076.075.004.182-.006.105-.008.204-.021.102-.011.196-.024.094-.014.205-.032l.008-.002q.183-.028.287-.019.104.014.199.12.093.104.078.199-.013.098-.117.192-.14.126-.271.071-.131-.055-.295-.238zm-2.133-.818l1.761 2.216.414-.329-1.761-2.216z"/><path d="M47.666 26.524a31.65 31.65 0 0 0-14.177 3.39 32.93 32.93 0 0 1 4.673 3.319 23.34 23.34 0 0 1 2.461-.133c3.202 0 6.36.679 9.296 1.948.572-1.608.946-3.282 1.102-4.983l.027-.364.032-.476a20.68 20.68 0 0 0 .023-.943l-.006-.225a23.28 23.28 0 0 0-.071-1.338l-3.28-.194h-.001c-.025 0-.051 0-.076 0zm-30.75.001c-1.175 0-2.335.066-3.477.19l-.066 1.567c0 5.496 2.183 10.453 5.694 14.003a32.8 32.8 0 0 1 12.124-12.376c-4.29-2.164-9.139-3.384-14.275-3.384zm15.426 3.996c-5.16 2.87-9.508 7.172-12.436 12.537.326.292.664.569 1.008.838 3.591-5.585 9.334-9.356 15.776-10.458-1.362-1.087-2.816-2.063-4.348-2.917zm-4.777 16.697c2.5-3.813 5.594-7.337 7.094-11.382l.166-.445.398.256c1.068.685 1.613 1.502 1.738 2.346s-.15 1.663-.551 2.41-.935 1.438-1.393 2.031-.834 1.119-.918 1.371c-.234.707-.187 1.233.01 1.646s.562.735 1.053.959c.982.448 2.438.448 3.527.006 3.21-1.303 4.595-3.015 6.087-5.002 1.829-2.435 3.283-4.2 4.623-5.39-2.775-1.186-5.755-1.822-8.778-1.822-7.641 0-14.716 3.919-18.818 10.336a18.78 18.78 0 0 0 5.76 2.68z" opacity=".998" fill="#008e4c" fill-rule="evenodd" /><g fill="#3e3a87"><path d="M53.664 35.022c-1.617 1.714-3.169 4.045-4.775 6.528-1.795 2.775-3.664 5.61-5.697 7.535-4.296 3.826-7.757 5.208-10.459 8.906l-.018.023-.013.025c-.465.89-.597 1.616-.637 2.252l-.066.978c-.963-1.105-2.157-2.119-3.285-3.312-1.346-1.425-2.428-3.076-2.43-5.463-.002-1.881 1.445-4.121 1.846-4.744l.002-.002c2.375-3.644 5.352-7.128 6.99-11.184.654.512 1.008 1.023 1.084 1.537.09.607-.11 1.268-.469 1.937s-.867 1.33-1.324 1.924-.87 1.09-1.039 1.599c-.281.849-.244 1.609.045 2.217s.814 1.044 1.427 1.324c1.227.56 2.835.547 4.133.02 3.359-1.364 4.908-3.248 6.412-5.25 2.088-2.78 3.676-4.654 5.07-5.738 1.128-.877 2.124-1.141 3.203-1.114zM37.138 54.729c-.304.757-.459 1.403-.784 2.026-.461.881-1.298 1.818-3.48 3.143.064-.434.2-.901.5-1.481 1.099-1.497 2.351-2.605 3.765-3.688z" opacity=".998"/><path d="M10.44 34.882c-.11-.001-.222.003-.334.011.838.794 1.817 2.074 2.861 3.641l3.283 5.193.002.002c1.018 1.733 3.012 3.775 4.955 5.457l2.748 2.176c.644.458 1.176.785 1.568.984.049-1.658.914-3.317 1.505-4.29-7.655-2.391-11.539-7.912-13.327-11.651l-.004-.01-.004-.011c-.003-.011-.033-.071-.091-.141a2.32 2.32 0 0 0-.246-.246 4.73 4.73 0 0 0-.859-.588c-.564-.304-1.285-.522-2.057-.527z"/></g><path d="M31.681 19.769H19.454v5.766a32.64 32.64 0 0 1 12.226 3.404zm1.299 0h12.226v5.766a32.64 32.64 0 0 0-12.226 3.404z" opacity=".998"  fill-rule="evenodd" fill="#d62f35"/><path d="M32.058 12.184l-8.532 3.335v3.266h8.532 8.532V15.52l-8.532-3.335z" fill="#d62f35"/></svg>